<svg width="37" height="42" fill="none" xmlns="http://www.w3.org/2000/svg"><path d="M30.87 29.28L18.5 41 6.13 29.28a16.32 16.32 0 01-4.8-8.48 15.75 15.75 0 011-9.57 16.8 16.8 0 016.45-7.44A18.2 18.2 0 0118.5 1c3.46 0 6.84.97 9.72 2.8a16.8 16.8 0 016.45 7.43 15.75 15.75 0 011 9.57 16.32 16.32 0 01-4.8 8.48z" fill="#2C36F2"/><path d="M19.52 10.23h-1.7L10.36 22.5h2.2l1.02-1.75 5.94-10.5z" fill="#2C36F2"/><path d="M11.37 24.59h14.26l-6.11-10.86-1.02 1.75 3.05 5.26 1.02 1.75H10.36l1.01 2.1z" fill="#2C36F2"/><path d="M22.57 22.49l-1.02-1.75h-7.97l-1.02 1.75h10.01z" fill="#2C36F2"/><path d="M25.63 24.59l1.01-2.1-7.12-12.26-5.94 10.5h1.87l3.05-5.25 1.02-1.75 6.1 10.86z" fill="#2C36F2"/><path d="M18.5 15.48l-3.05 5.26h6.1l-3.05-5.26z" fill="#2C36F2"/><path d="M25.63 24.59H11.37l-1.01-2.1m15.27 2.1l1.01-2.1-7.12-12.26m6.1 14.36l-6.1-10.86-1.02 1.75m1.02-5.25h-1.7L10.36 22.5m9.16-12.26l-5.94 10.5m-3.22 1.76h2.2m5.94-7l-3.05 5.25m3.05-5.26l3.05 5.26m-6.1 0h6.1m-6.1 0h-1.87m7.97 0l1.02 1.75h-10m1.01-1.75l-1.02 1.75m18.31 6.8L18.5 41 6.13 29.28a16.32 16.32 0 01-4.8-8.48 15.75 15.75 0 011-9.57 16.8 16.8 0 016.45-7.44A18.2 18.2 0 0118.5 1c3.46 0 6.84.97 9.72 2.8a16.8 16.8 0 016.45 7.43 15.75 15.75 0 011 9.57 16.32 16.32 0 01-4.8 8.48z" stroke="#F6F7FF" stroke-width=".5"/></svg>